#!OML:ASF Y:\EmotionMaleHayes\Project 1\Capture day 1\Session 1\Male1.ASF
:FULLY-SPECIFIED
:DEGREES
654
root -5.35041 17.0429 -14.2939 151.573 91.2361 152.317
lowerback 4.0214 0.802994 -0.519349
upperback 5.183 1.22935 -1.31655
thorax 3.09898 0.682087 -1.07577
lowerneck -23.4193 -3.78148 -2.80433
upperneck 28.7835 -6.61137 7.8073
head 14.1739 -1.8777 2.41511
rclavicle 1.18277e-014 3.97569e-016
rhumerus 42.9297 18.1358 -29.8898
rradius 41.9971
rwrist -5.90393
rhand -4.63159 -33.0934
rfingers 7.12502
rthumb 21.1473 -61.96
lclavicle 1.18277e-014 3.97569e-016
lhumerus 44.5796 -17.7364 24.9318
lradius 42.1057
lwrist 7.66554
lhand -13.7937 -24.1741
lfingers 7.12502
lthumb 12.328 5.44246
rfemur 15.132 -2.23465 24.3466
rtibia 5.89129
rfoot -19.476 2.13357
rtoes 21.1976
lfemur -11.1224 -2.42938 -4.61769
ltibia 26.2981
lfoot -15.0328 8.92733
ltoes -21.7434
655
root -5.28312 17.0391 -14.3011 155.435 91.8644 156.016
lowerback 4.10977 0.894641 -0.280972
upperback 5.13022 1.35289 -1.37194
thorax 3.0034 0.752059 -1.27
lowerneck -24.0423 -3.55143 -2.12066
upperneck 29.3193 -6.4052 7.26879
head 14.4765 -1.75834 2.12897
rclavicle -6.16232e-015 -8.74653e-015
rhumerus 42.8607 18.1599 -30.2914
rradius 41.8686
rwrist -5.66396
rhand -4.71356 -33.1189
rfingers 7.12502
rthumb 21.0686 -61.9944
lclavicle -6.16232e-015 -8.74653e-015
lhumerus 44.5884 -17.9301 24.546
lradius 42.1307
lwrist 7.89427
lhand -13.7714 -24.0813
lfingers 7.12502
lthumb 12.3495 5.53396
rfemur 15.1684 -2.11884 24.518
rtibia 5.96303
rfoot -19.3698 2.36132
rtoes 20.3745
lfemur -12.0237 -2.62089 -4.39211
ltibia 25.2761
lfoot -14.516 8.32958
ltoes -22.1883
656
root -5.21009 17.034 -14.3091 164.239 92.4752 164.743
lowerback 4.24058 0.992069 -0.396532
upperback 5.11346 1.48038 -1.43559
thorax 2.91452 0.813293 -1.27552
lowerneck -22.9739 -3.75055 -2.81268
upperneck 28.5139 -6.63602 8.09186
head 13.9795 -1.86629 2.5225
rclavicle 1.46107e-014 -7.55382e-015
rhumerus 42.8838 18.2748 -30.5371
rradius 41.8173
rwrist -5.52804
rhand -4.75044 -33.1367
rfingers 7.12502
rthumb 21.0332 -62.0161
lclavicle 1.46107e-014 -7.55382e-015
lhumerus 44.5553 -18.0556 24.2393
lradius 42.0066
lwrist 8.15359
lhand -13.6463 -24.0781
lfingers 7.12502
lthumb 12.4701 5.52981
rfemur 15.2585 -1.91423 24.3378
rtibia 6.11914
rfoot -19.3591 2.58438
rtoes 19.4597
lfemur -12.7581 -2.89981 -4.51188
ltibia 24.1778
lfoot -13.9862 7.72548
ltoes -22.3862
657
root -5.13699 17.0304 -14.3202 170.5 93.1987 171.01
lowerback 4.4189 1.13167 -0.559393
upperback 5.15257 1.66454 -1.4646
thorax 2.85576 0.901923 -1.22086
lowerneck -23.9167 -3.54357 -2.46439
upperneck 29.1336 -6.36139 7.60937
head 14.3942 -1.74045 2.33172
rclavicle -2.48481e-015 3.97569e-016
rhumerus 42.8946 18.3931 -30.4953
rradius 41.864
rwrist -5.52764
rhand -4.75508 -32.9804
rfingers 7.12502
rthumb 21.0287 -61.8603
lclavicle -2.48481e-015 3.97569e-016
lhumerus 44.5714 -18.1227 24.1001
lradius 41.856
lwrist 8.32151
lhand -13.6978 -24.1577
lfingers 7.12502
lthumb 12.4205 5.45323
rfemur 15.4337 -1.59867 24.0805
rtibia 6.30825
rfoot -19.378 2.91832
rtoes 19.8511
lfemur -13.2882 -3.10118 -4.67267
ltibia 22.8427
lfoot -12.9495 7.24627
ltoes -22.7586
658
root -5.06326 17.0273 -14.3338 170.904 93.9327 171.364
lowerback 4.5108 1.23191 -0.414216
upperback 5.18906 1.80288 -1.50279
thorax 2.85067 0.977474 -1.34573
lowerneck -23.3266 -3.51818 -2.52584
upperneck 28.6949 -6.28992 7.66845
head 14.0756 -1.73679 2.36968
rclavicle 1.00386e-014 -1.35174e-014
rhumerus 42.9116 18.4731 -30.5664
rradius 41.842
rwrist -5.45534
rhand -4.62576 -32.7965
rfingers 7.12502
rthumb 21.153 -61.6625
lclavicle 1.00386e-014 -1.35174e-014
lhumerus 44.5535 -18.1895 23.7827
lradius 41.8391
lwrist 8.50321
lhand -13.79 -24.1172
lfingers 7.12502
lthumb 12.3316 5.49909
rfemur 15.6875 -1.39988 24.0621
rtibia 6.26947
rfoot -19.2053 3.26485
rtoes 20.4011
lfemur -13.8148 -3.28029 -4.52405
ltibia 21.3776
lfoot -11.5188 6.69645
ltoes -23.6534
659
root -4.9867 17.0232 -14.3436 167.851 94.6344 168.222
lowerback 4.5527 1.28732 -0.0114291
upperback 5.21976 1.88592 -1.50515
thorax 2.87404 1.03268 -1.57579
lowerneck -23.0973 -3.48798 -2.4754
upperneck 28.5526 -6.27526 7.72878
head 13.9657 -1.72593 2.38524
rclavicle 1.71949e-014 -2.46493e-014
rhumerus 42.9118 18.629 -30.5561
rradius 41.9015
rwrist -5.60676
rhand -4.43074 -32.8394
rfingers 7.12502
rthumb 21.3403 -61.6843
lclavicle 1.71949e-014 -2.46493e-014
lhumerus 44.4923 -18.1546 23.5198
lradius 41.8175
lwrist 8.59337
lhand -13.6508 -23.998
lfingers 7.12502
lthumb 12.4658 5.6102
rfemur 15.9427 -1.32001 24.3672
rtibia 6.08563
rfoot -19.0298 3.42986
rtoes 20.412
lfemur -14.3618 -3.53679 -3.98092
ltibia 19.8906
lfoot -10.1918 5.9807
ltoes -25.127
660
root -4.90608 17.0171 -14.3518 167.811 95.2533 168.092
lowerback 4.47134 1.34502 0.147659
upperback 5.31086 1.97188 -1.54945
thorax 3.02404 1.08392 -1.70829
lowerneck -23.0573 -3.48729 -2.49903
upperneck 28.4231 -6.32166 7.92059
head 13.9156 -1.72667 2.45455
rclavicle 0 1.59028e-014
rhumerus 42.9903 18.7784 -30.3926
rradius 41.9572
rwrist -5.94364
rhand -4.30834 -33.1247
rfingers 7.12502
rthumb 21.4578 -61.9563
lclavicle 0 1.59028e-014
lhumerus 44.4547 -17.9728 23.5549
lradius 41.7442
lwrist 8.36227
lhand -13.5414 -23.8596
lfingers 7.12502
lthumb 12.5713 5.74215
rfemur 16.1496 -1.25863 24.4277
rtibia 6.00928
rfoot -19.0914 3.48032
rtoes 19.9964
lfemur -14.8928 -3.79889 -3.70429
ltibia 18.4088
lfoot -8.63215 5.28605
ltoes -25.0251
661
root -4.82501 17.0114 -14.3629 169.392 95.8573 169.533
lowerback 4.08102 1.40607 -0.0739449
upperback 5.55159 2.05926 -1.44924
thorax 3.48462 1.12173 -1.46702
lowerneck -23.0228 -3.40462 -2.39334
upperneck 28.0868 -6.15761 7.69382
head 13.7376 -1.69376 2.36474
rclavicle -5.36719e-015 1.66979e-014
rhumerus 43.3456 18.6958 -30.1399
rradius 41.9771
rwrist -6.00394
rhand -4.08835 -33.5548
rfingers 7.12502
rthumb 21.6691 -62.3622
lclavicle -5.36719e-015 1.66979e-014
lhumerus 44.3535 -17.5292 23.9393
lradius 41.6154
lwrist 7.97462
lhand -13.5812 -23.8045
lfingers 7.12502
lthumb 12.5329 5.79967
rfemur 16.2733 -1.00327 24.3749
rtibia 6.06223
rfoot -19.2446 3.47887
rtoes 20.2224
lfemur -15.4674 -3.92915 -3.66423
ltibia 17.0495
lfoot -7.17323 4.6546
ltoes -25.0469
662
root -4.74424 17.0067 -14.3744 169.34 96.5727 169.375
lowerback 4.29291 1.48474 0.0590292
upperback 5.4279 2.15803 -1.46028
thorax 3.2449 1.17329 -1.56228
lowerneck -22.7794 -3.27171 -1.71318
upperneck 27.9574 -5.96724 6.91069
head 13.5599 -1.66061 1.96754
rclavicle -1.2921e-014 1.11319e-014
rhumerus 43.1518 18.8434 -30.553
rradius 41.9917
rwrist -5.63479
rhand -3.97043 -33.5389
rfingers 7.12502
rthumb 21.7824 -62.3331
lclavicle -1.2921e-014 1.11319e-014
lhumerus 44.1717 -17.6568 23.8898
lradius 41.5869
lwrist 8.00916
lhand -13.7281 -23.8197
lfingers 7.12502
lthumb 12.3913 5.79303
rfemur 16.4775 -0.685719 24.5106
rtibia 5.98755
rfoot -19.1817 3.56415
rtoes 20.9837
lfemur -15.904 -4.07009 -3.40436
ltibia 15.6334
lfoot -5.69897 4.22813
ltoes -24.1185
